<svg xmlns="http://www.w3.org/2000/svg" version="1.1" xmlns:xlink="http://www.w3.org/1999/xlink" xmlns:svgjs="http://svgjs.com/svgjs" width="1440" height="560" preserveAspectRatio="none" viewBox="0 0 1440 560"><g mask="url(&quot;#SvgjsMask1033&quot;)" fill="none"><rect width="1440" height="560" x="0" y="0" fill="rgba(136, 179, 143, 1)"></rect><path d="M0,578.387C108.398,596.304,217.511,541.387,306.657,477.168C393.08,414.91,472.682,329.265,491.38,224.406C509.059,125.26,438.462,36.092,402.051,-57.806C374.088,-129.917,343.159,-196.366,302.665,-262.261C254.146,-341.215,229.389,-452.51,141.478,-481.829C53.849,-511.054,-32.706,-437.557,-118.224,-402.633C-194.767,-371.374,-268.215,-340.062,-332.621,-288.218C-408.591,-227.065,-492.973,-167.661,-524.696,-75.44C-558.961,24.171,-566.48,143.631,-512.233,233.929C-458.824,322.832,-333.828,327.655,-247.765,385.53C-159.122,445.139,-105.392,560.967,0,578.387" fill="#507d57"></path><path d="M1440 1025.914C1538.997 1031.138 1643.2069999999999 1058.818 1731.092 1012.948 1821.423 965.8009999999999 1891.862 876.3969999999999 1916.095 777.425 1939.0439999999999 683.697 1885.504 592.179 1856.662 500.093 1832.434 422.74 1799.629 353.145 1760.901 281.937 1711.211 190.574 1690.46 70.23000000000002 1597.504 23.590000000000032 1503.403-23.625 1390.733 18.715000000000032 1288.801 45.06299999999999 1183.863 72.18799999999999 1069.5230000000001 95.57 999.3779999999999 178.19799999999998 929.438 260.585 928.746 377.336 915.659 484.611 902.84 589.685 876.256 701.178 924.054 795.625 971.332 889.046 1072.392 940.5609999999999 1168.003 983.236 1253.541 1021.415 1346.458 1020.9780000000001 1440 1025.914" fill="#cbdece"></path></g><defs><mask id="SvgjsMask1033"><rect width="1440" height="560" fill="#ffffff"></rect></mask></defs></svg>